<svg xmlns="http://www.w3.org/2000/svg" width="620" height="150">
    <path d="M586.344 17.344v24.5h3.968V31.437h2.313c1.388 0 2.43.28 3.156.844 1.045.766 2.418 2.655 4.126 5.69l2.188 3.874h4.812l-2.968-4.813c-1.43-2.27-2.643-3.88-3.625-4.843-.523-.503-1.232-.92-2.094-1.28 2.11-.162 3.82-.927 5.092-2.25 1.277-1.33 1.907-2.868 1.907-4.657 0-1.267-.395-2.467-1.158-3.594-.762-1.125-1.776-1.923-3.062-2.375-1.286-.45-3.376-.686-6.25-.686h-8.406zm3.968 3.343h4.47c1.928 0 3.252.123 3.968.407.712.28 1.286.707 1.688 1.28.4.573.593 1.215.593 1.94 0 1.124-.42 2.036-1.25 2.717-.836.686-2.395 1.032-4.686 1.032h-4.782v-7.375z" fill="#231f20"/>
    <path d="M596.344 6.5c-3.816 0-7.552.976-11.188 2.938-3.638 1.958-6.494 4.76-8.53 8.406-2.04 3.647-3.063 7.447-3.063 11.406 0 3.92 1.023 7.696 3.03 11.313 2.013 3.62 4.8 6.438 8.407 8.437 3.606 2 7.405 3 11.344 3 3.94 0 7.706-1 11.312-3 3.607-2 6.408-4.818 8.407-8.438 1.998-3.616 3-7.393 3-11.312 0-3.96-1.032-7.76-3.063-11.406-2.03-3.647-4.865-6.448-8.5-8.407-3.638-1.96-7.337-2.937-11.156-2.937zm0 3.78c3.175 0 6.278.8 9.312 2.44 3.036 1.638 5.395 3.987 7.094 7.03 1.696 3.047 2.53 6.207 2.53 9.5 0 3.276-.832 6.435-2.5 9.438-1.667 3.003-4.016 5.354-7.03 7.03-3.015 1.678-6.132 2.5-9.406 2.5-3.276 0-6.424-.822-9.438-2.5-3.015-1.676-5.385-4.027-7.062-7.03-1.677-3.003-2.5-6.162-2.5-9.438 0-3.293.854-6.453 2.562-9.5 1.71-3.043 4.07-5.392 7.094-7.03 3.025-1.64 6.147-2.44 9.344-2.44z" fill="#231f20"/>
    <path d="M251.4 8.893h20.68V.795H220.41v8.098h20.567v37.432h10.42V8.893zm-48.82-.258c3.203 0 4.678.61 4.678 3.62v5.486c0 3-1.475 3.62-4.68 3.62h-23.472V8.635h23.473zm-33.71 37.69h10.236V29.122h9.915L207.1 46.325h14.93l-20.672-17.203h5.902c6.86 0 10.063-2.48 10.063-8.822V9.602c0-6.35-3.203-8.807-10.062-8.807h-38.39v45.53zM119.82 9.153h34.41v28.89h-34.41V9.154zm-10.4 2.66v24.015c0 8.565 2.687 10.768 11.09 10.768h33.017c8.416 0 11.113-2.203 11.113-10.768V11.812c0-8.56-2.697-10.764-11.113-10.764H120.51c-8.403 0-11.09 2.205-11.09 10.764M89.27 8.892c3.24 0 4.69.63 4.69 3.632v4.854c0 3.005-1.45 3.633-4.69 3.633h-23.45V8.894h23.45zM55.586 46.597h10.237V28.844h28.14c6.86 0 10.075-2.473 10.075-8.815V9.866c0-6.344-3.215-8.82-10.075-8.82H55.586v45.55zM40.313 7.938v5.216l9.187-2.202v-.974C49.5 2.116 46.364 0 38.387 0H12.933c-8.412 0-11.1 2.21-11.1 10.768V15.8c0 8.57 2.688 10.772 11.1 10.772H40.9v10.42H9.2V31.61L0 33.55v1.23c0 8.566 2.78 10.77 11.192 10.77h27.715c8.44 0 11.195-2.204 11.195-10.77v-6.27c0-8.553-2.756-10.77-11.195-10.77H10.95V7.94h29.363z" fill="#171316" fill-rule="evenodd"/>
    <path d="M0 55.03v17.032h42.938V150H64.56V72.062h43.157v-17.03H0zm111.875 0V150h21.438v-35.938h20.437L191 150h45.688l11.125-20.875h58.937L317.875 150H359.22l31.342-35.47L424.656 150h33.687l31.344-35.47L523.813 150h29.657l-50.095-51.438L544 55.032h-25.03l-28.22 30.75-29.844-30.75h-41.092l-28.19 30.75-29.874-30.75h-29.03l44.81 46.25-38.624 42.75-50.25-89h-20.844l-50.53 90.843-37.438-31.813h12.22c14.293 0 20.81-5.14 20.81-18.156v-22.5c0-13.228-6.517-18.375-20.81-18.375h-80.19zm326.594 6.814l38.217 39.437-33.593 37.19-38.844-39.907 34.22-36.72zM133.31 71.406h49.47c6.538 0 9.937 1.32 9.937 7.625v11.032c0 6.3-3.4 7.657-9.94 7.657h-49.468V71.405zm143.75.875l20.844 39.564h-40.812l19.97-39.563z" fill="#0e88d3" fill-rule="evenodd"/>
</svg>
